<?xml version="1.0" encoding="UTF-8" standalone="no"?>
<svg
   width="2384.6594"
   zoomAndPan="magnify"
   viewBox="0 0 1788.4946 1085.7786"
   height="1447.705"
   preserveAspectRatio="xMidYMid"
   version="1.0"
   id="svg486"
   sodipodi:docname="Logo.svg"
   xmlns:inkscape="http://www.inkscape.org/namespaces/inkscape"
   xmlns:sodipodi="http://sodipodi.sourceforge.net/DTD/sodipodi-0.dtd"
   xmlns="http://www.w3.org/2000/svg"
   xmlns:svg="http://www.w3.org/2000/svg">
  <sodipodi:namedview
     id="namedview488"
     pagecolor="#505050"
     bordercolor="#eeeeee"
     borderopacity="1"
     inkscape:showpageshadow="0"
     inkscape:pageopacity="0"
     inkscape:pagecheckerboard="0"
     inkscape:deskcolor="#505050"
     showgrid="false" />
  <defs
     id="defs4" />
  <path
     fill="#5271ff"
     d="m 872.28018,236.29659 c -26.2226,61.61718 -72.1054,57.02734 -100.9492,5.24218 -4.5898,-7.86718 -8.5234,-1.96484 -5.2461,3.27735 23.6016,36.71094 64.2422,62.92969 102.2617,26.8789 7.211,-5.90234 7.211,-43.26562 3.9336,-35.39843 z M 775.26458,93.394239 c 36.0508,-23.597652 67.5156,-22.289059 95.7031,3.27735 9.1797,8.519531 13.7656,3.27734 4.5899,-5.2461 -101.6055,-94.3945277 -169.125,43.921881 -124.5469,121.925781 5.2422,9.83204 11.1406,7.21094 5.2422,-3.93359 -19.0078,-35.39453 -23.5977,-88.49219 19.0117,-116.023441 z m 142.9023,197.308601 c -28.1875,-11.80078 -38.0195,-17.69922 -28.8437,-42.60938 2.6211,-7.21094 -2.6211,-10.48828 -5.8984,-3.27734 -15.7344,33.43359 -2.625,57.6875 29.496,64.89844 8.5235,1.96484 13.1094,-15.07813 5.2461,-19.01172 z m -244.5078,199.93359 c -26.875,41.29688 -67.5195,57.68359 -114.05857,68.82813 -58.99609,13.76562 -100.94922,48.50781 -81.94141,100.29296 13.10938,35.39844 -1.96484,42.60938 -16.38671,72.10547 -9.83204,20.32032 -19.66407,4.58985 -12.45704,-7.21093 7.86719,-13.76563 11.80079,-20.97657 8.52344,-37.36329 -3.27734,-19.66406 -14.42187,-28.84375 -28.1875,-9.17578 -5.89844,8.51953 -2.62109,7.86328 2.6211,1.96485 13.11328,-13.76563 16.39062,-6.55469 19.66796,7.86718 3.27735,15.73047 0,20.32032 -7.21093,32.77344 -12.45703,20.97656 9.83203,41.30078 26.21875,12.45703 17.04297,-30.15234 30.15625,-37.36328 15.07812,-75.38281 -18.35547,-46.54297 26.21875,-78.00781 76.69531,-91.77344 50.47268,-13.76562 98.98048,-30.80859 119.30468,-72.76172 4.586,-12.45703 0,-14.42187 -7.8672,-2.62109 z m -88.4961,-11.80078 c 27.5313,-19.01172 44.5782,-33.42969 60.3086,-41.29688 11.8008,-5.24609 9.8321,-9.83203 -1.9648,-5.24609 -23.6016,9.17969 -45.8867,22.94531 -62.2774,41.29688 -7.207,8.52343 -3.2773,9.83593 3.9336,5.24609 z M 393.10051,713.51143 c 1.96484,8.51953 6.55469,38.67188 -5.90234,38.01953 0,0 0,-0.65625 0.65625,-0.65625 5.89843,-15.07812 -6.55469,-28.84375 -5.24219,-45.23047 0.65234,-7.86718 -5.24609,-10.48828 -5.90234,-1.3125 -1.3086,13.76563 11.80078,32.1211 4.58984,42.60938 -9.17578,14.42187 -13.76563,16.38672 -15.07813,0 -1.30859,-18.35547 -8.51953,-34.74219 -11.79687,-55.71875 -2.625,-16.38672 3.27734,-32.1211 17.04297,-41.95313 38.67578,-27.53125 95.04687,-76.69531 87.18359,-71.44922 -12.45703,9.17579 -78.00781,60.30469 -90.46094,66.20704 -17.04296,8.51953 -24.91015,23.59765 -22.28906,42.60546 3.27735,20.32032 13.76563,42.60938 15.07813,60.3086 0.65625,7.21094 1.96484,25.5664 14.42187,17.04297 2.6211,-1.96485 5.89844,-4.58985 7.86328,-7.21094 0.65625,0.65625 1.3125,0.65625 2.625,0.65625 21.62891,1.3125 15.73047,-36.71094 13.10938,-45.88672 -3.27735,-7.86719 -7.21094,-4.58984 -5.89844,1.96875 z M 1207.9013,446.71456 c 30.8125,19.66796 41.9531,57.03125 49.1641,80.6289 6.5547,23.59766 4.5898,12.45313 1.9687,-3.27734 -6.5547,-38.67578 -11.1445,-64.89453 -44.5781,-83.90625 -13.1094,-7.21094 -19.0078,-1.3125 -6.5547,6.55469 z m 55.0664,152.73437 c -3.9336,-1.96484 -5.9023,-15.73047 -10.4883,-16.38672 -11.1445,-1.3125 -16.3906,13.76563 -2.625,19.01172 36.711,13.10938 55.0625,74.72656 49.1641,111.4375 -0.6562,4.58594 -2.6211,6.55469 -5.2422,0 -2.625,-5.90234 -5.2461,-23.60156 -7.2109,-30.8125 -4.5899,-17.04297 -16.3906,-16.38672 -16.3906,-1.96484 0,9.83203 4.5898,10.48828 5.9023,0 0,-1.3125 3.2773,-1.3125 3.9336,1.3125 2.6211,11.79687 5.2422,22.9414 8.5195,35.39453 4.5899,17.04687 12.4571,12.45703 15.0781,-3.27735 6.5547,-33.42968 -6.5546,-97.67187 -40.6406,-114.71484 z m 14.418,112.09375 c 1.3125,3.27734 5.9023,51.12891 -0.6524,34.74219 -3.9335,-8.51953 -5.9023,-19.66406 -7.8671,-29.4961 -1.9688,-8.52343 -7.8672,-7.86718 -7.211,0.65235 0.6563,10.48828 4.5899,19.66797 8.5196,29.5 14.4218,37.36328 17.0468,-18.35547 13.1132,-36.70703 -1.9687,-11.14453 -9.832,-8.52344 -5.9023,1.30859 z m -32.7734,-15.73047 c 0.6562,10.48828 1.3085,39.32813 0,47.19531 -0.6563,4.58985 -4.5899,15.07813 -8.5235,5.2461 -5.2422,-11.80078 -7.8633,-32.77735 -10.4883,-46.54297 -1.9648,-11.14453 -15.7304,-26.22266 -20.9765,-8.52344 -1.9649,7.86719 5.2461,5.90235 5.9023,1.96875 1.3086,-9.17969 8.5195,2.6211 9.1758,7.86719 3.2773,16.38672 1.9648,31.46484 9.1758,47.19531 7.8672,17.69922 17.6992,8.52344 21.6328,-6.55469 3.2773,-11.80078 0.6562,-36.05468 -0.6563,-47.85156 -0.6562,-3.93359 0.6563,-12.45703 3.9336,-7.86719 3.9336,5.89844 8.5235,9.17579 4.5899,0 -4.5899,-13.76562 -14.4219,-7.21093 -13.7656,7.86719 z m -39.9883,46.53906 c 0,7.21094 -1.9649,7.86719 -5.8985,1.96875 -9.1757,-12.45703 -9.1757,-38.67578 -9.1757,-52.4414 0,-7.21094 -3.2774,-11.80078 -4.5899,-3.27735 -1.9648,15.73047 0,51.12891 12.4531,63.58204 9.1797,7.86718 14.4219,-4.58594 12.4571,-13.10938 -1.9688,-6.55469 -5.2461,-2.62109 -5.2461,3.27734 z m -49.8164,-68.17187 c 1.3086,-4.58984 6.5547,-11.14453 12.4531,-19.66406 5.8984,-7.86719 12.4531,-17.04688 17.043,-26.22266 7.2109,-13.76562 11.1445,-14.42187 15.0781,-15.73047 1.3086,0 1.9648,-0.65625 3.2773,-1.3125 0,-6.55469 -5.2461,-21.63281 -9.1758,-20.32031 -5.9023,1.30859 1.9649,7.21094 -7.2109,23.59766 -4.5898,8.52343 -19.668,27.53125 -24.9101,35.39843 -5.9024,8.51953 -11.8008,16.38672 -13.1094,21.63282 -0.6563,0.65234 -0.6563,1.96484 -1.3125,3.27734 -3.9336,9.83203 -9.1758,24.25391 -4.5899,34.08594 1.3125,2.62109 2.6211,4.58984 3.9336,5.89843 1.3125,1.3125 3.2774,1.96875 5.2461,1.96875 1.9649,0 3.2774,-0.65625 4.586,-1.96875 1.3125,-1.30859 2.625,-3.27734 3.9336,-5.89843 0,-0.65625 0.6562,-1.3125 1.3125,-2.6211 2.621,-7.86718 8.5195,-23.60156 20.3203,-26.8789 l -1.9688,-7.21094 c -15.7305,3.93359 -22.9414,22.28906 -25.5625,31.46484 -0.6562,0.65625 -0.6562,1.96875 -0.6562,2.625 -0.6563,1.3086 -1.3125,2.6211 -1.9649,3.27735 -0.6562,-0.65625 -1.3125,-1.3125 -1.3125,-2.625 -3.2773,-7.20703 1.3125,-19.66407 4.5899,-28.83985 -0.6563,-1.96875 -0.6563,-2.625 0,-3.93359 z m 0,0"
     fill-opacity="1"
     fill-rule="nonzero"
     id="path6"
     inkscape:export-filename="logo.svg"
     inkscape:export-xdpi="96"
     inkscape:export-ydpi="96" />
  <path
     fill="#5271ff"
     d="m 1237.4013,444.74971 c -0.6562,-9.17969 -15.0781,-19.66797 -27.5312,-24.2539 -45.8868,-34.74219 -104.2266,-83.90625 -155.3594,-114.71485 -36.0508,-21.63281 -57.02742,-22.94531 -100.29302,-20.97656 -19.0078,0.65625 -24.9101,1.30859 -20.3203,20.32031 1.3125,7.21094 -5.2422,20.97656 -7.8672,27.53125 -7.2109,15.07813 0,17.69922 5.9024,4.58985 3.9336,-8.52344 11.1406,-22.94532 9.1757,-32.1211 -2.621,-11.14453 5.2461,-4.58984 15.7344,-5.24609 19.0078,-1.3086 59.64852,-7.21094 94.39062,12.45703 62.9297,35.39844 109.4727,91.11719 136.3477,108.16016 -47.1953,15.07421 -92.4258,94.39453 -66.207,111.4375 7.2109,4.58593 15.0781,0.65625 20.3203,-3.9336 7.8672,-6.55469 6.5586,-9.83203 -3.2774,-4.58984 -3.2773,1.96875 -10.4882,5.24609 -14.4179,3.27734 -18.3555,-9.83203 40.6406,-80.6289 88.4922,-85.21484 5.2461,-0.65625 16.3867,-1.96875 18.3554,4.58594 4.586,9.17968 6.5547,8.52343 6.5547,-1.3086 z m -164.5351,22.94141 c -23.5977,-24.25391 -41.9532,22.94531 -41.2969,43.26562 0.6562,12.45313 15.0781,36.70703 22.289,49.16407 6.5547,10.48828 9.8321,8.51953 3.9297,-2.625 -6.5547,-13.76563 -7.207,-36.05079 -6.5547,-44.57422 1.3125,-13.76563 -3.2773,-51.12891 12.4571,-31.46485 9.832,12.45703 24.2539,19.01172 38.0195,33.4336 7.2109,7.86328 11.7969,3.27734 5.8984,-4.58985 -11.1445,-15.73437 -22.2851,-29.5 -34.7421,-42.60937 z m -312.67972,34.08594 c -6.5547,4.58984 -14.4219,9.83593 -21.6328,15.07812 -14.4219,-25.56641 -45.8868,-54.40625 -64.8946,-72.76172 -18.3554,-17.69922 -18.3554,-8.52344 -6.5547,-20.97656 34.086,-34.08594 92.4258,-76.03906 138.9688,-89.14844 19.0078,-5.24609 15.7305,-9.83594 -0.6563,-6.55469 -52.4414,11.79688 -115.3711,53.09375 -154.0468,90.46094 -21.6289,20.32031 -5.2422,12.45313 15.0781,32.11719 20.3203,19.66797 37.3633,46.54297 48.5078,72.10937 3.9336,9.83204 6.5547,34.08594 -1.9648,9.17579 -2.625,-7.21094 -5.9024,-6.55469 -4.5899,1.3125 1.3125,5.89843 13.1094,21.6289 16.3867,16.38671 1.9688,-2.62109 7.211,-7.86718 11.8008,-13.10937 7.211,-7.21094 15.7305,-14.42188 21.6328,-19.01172 7.211,-3.93359 7.8633,-19.00781 1.9649,-15.07812 z m 41.9531,-22.94141 c -2.6211,-10.48828 -20.3203,-6.55469 -18.3555,5.89844 5.9024,41.95312 28.1875,98.98437 39.3321,142.24609 5.8984,22.94531 -5.8985,48.50781 -7.211,68.17578 -0.6562,12.45313 7.8672,13.76563 7.8672,0 0,-20.97656 11.7969,-45.88672 7.2109,-69.48437 -10.4882,-47.85157 -18.3554,-99.64063 -28.8437,-146.83594 z m 0,0"
     fill-opacity="1"
     fill-rule="nonzero"
     id="path8" />
  <path
     fill="#ebebeb"
     d="m 1392.1005,681.39034 c 4.5899,-1.3125 8.5235,0.65625 8.5235,3.93359 0,5.89844 -7.211,9.83203 -10.4883,7.86328 2.6211,9.17969 5.8984,17.69922 8.5234,26.87891 1.9649,6.55469 -2.625,7.86328 -4.5898,1.96484 -2.6211,-9.17578 -5.8985,-18.35547 -8.5235,-27.53125 -1.9648,-6.55469 -1.3085,-11.14453 6.5547,-13.10937 z m 0,0"
     fill-opacity="1"
     fill-rule="evenodd"
     id="path10" />
  <path
     fill="#ebebeb"
     d="m 1470.7646,646.64815 c 3.9336,-1.96875 8.5195,-1.3125 9.1758,1.96484 1.3125,5.90235 -4.586,11.14453 -8.5196,9.83203 4.586,7.86719 9.1758,16.39063 13.7657,24.25391 3.2773,5.90234 -0.6563,8.52344 -3.9336,2.625 -4.5899,-8.52344 -9.8321,-17.04297 -14.4219,-25.56641 -3.2773,-4.58984 -3.2773,-9.17578 3.9336,-13.10937 z m 0,0"
     fill-opacity="1"
     fill-rule="evenodd"
     id="path12" />
  <path
     fill="#ebebeb"
     d="m 1352.7724,672.8669 c -3.9336,1.96875 -8.5234,1.3125 -9.1797,-1.96484 -1.3086,-5.90235 5.2461,-11.80079 9.1797,-10.48829 -4.5898,-8.52343 -9.832,-17.04296 -14.4219,-25.5664 -3.2773,-5.24219 -0.6562,-7.21094 2.6211,-5.24219 4.5899,3.27734 19.6641,1.96484 20.9766,9.17578 0.6562,3.27735 -5.2422,9.17578 -5.2422,5.2461 0,-6.5586 -7.2109,-5.90235 -11.8008,-7.86719 l 12.4531,22.28515 c 3.2774,5.90235 3.2774,11.14454 -4.5859,14.42188 z m 0,0"
     fill-opacity="1"
     fill-rule="evenodd"
     id="path14" />
  <path
     fill="#ebebeb"
     d="m 1409.1474,653.20284 c -4.5898,1.96484 -8.5234,1.3125 -9.1797,-1.96875 -1.3086,-5.89844 5.2461,-11.14063 9.1797,-9.83203 -4.5898,-8.51954 -9.1797,-17.04297 -13.7695,-25.5625 -3.2774,-5.2461 -0.6524,-7.21094 2.625,-5.2461 4.5859,3.27735 19.664,2.6211 20.9765,9.83203 0.6563,3.27735 -5.2461,9.17969 -5.2461,5.2461 0.6563,-6.55469 -7.2109,-5.90235 -11.7968,-7.86719 l 11.7968,22.28906 c 3.2774,4.58594 3.2774,9.17578 -4.5859,13.10938 z m 0,0"
     fill-opacity="1"
     fill-rule="evenodd"
     id="path16" />
  <path
     fill="#ebebeb"
     d="m 1430.124,581.09737 c -3.9336,1.30859 -8.5235,0.65234 -8.5235,-2.625 -0.6562,-5.89844 5.8985,-10.48828 9.1758,-9.17578 -3.9336,-8.52344 -7.8633,-17.04297 -11.7969,-25.56641 -2.625,-6.55469 1.9649,-8.51953 4.586,-2.62109 3.9336,9.17578 7.8672,17.69922 11.8008,26.875 2.6211,5.24609 1.9648,9.83593 -5.2422,13.11328 z m 0,0"
     fill-opacity="1"
     fill-rule="evenodd"
     id="path18" />
  <path
     fill="#ebebeb"
     d="m 758.22158,239.57393 c 9.8321,21.63281 -11.1445,11.79688 15.0742,41.95313 20.9766,24.2539 23.5977,43.91796 13.7657,76.03906 -5.8985,18.35547 -12.4532,38.01953 9.1797,62.92969 33.4296,38.67578 55.0625,78.66015 65.5507,126.51171 5.8985,28.84375 -0.6562,44.57813 -24.2539,61.6211 -43.9218,31.46484 -131.1054,51.1289 -128.4804,121.26953 0.6562,19.00781 -3.2774,17.04297 -3.9336,1.96484 -5.8985,-74.07031 80.6289,-92.42578 129.1367,-129.13672 20.9766,-16.38671 26.2187,-28.1875 21.6328,-54.40625 -9.1797,-49.16406 -32.1211,-86.52734 -64.8984,-122.58203 -24.9102,-27.53125 -16.3868,-52.4414 -8.5196,-72.10547 10.4883,-28.1875 9.1758,-45.88671 -12.457,-67.51953 -32.7734,-33.42968 -7.2109,-22.9414 -16.3867,-43.91797 -5.2461,-8.52343 0,-13.10937 4.5898,-2.62109 z m 0,0"
     fill-opacity="1"
     fill-rule="nonzero"
     id="path20" />
  <path
     fill="#ebebeb"
     d="m 764.77628,261.20674 c 36.707,26.875 42.6055,53.75 45.8867,86.52735 7.8633,82.59375 41.2969,118.64843 72.1055,180.92187 10.4883,20.97656 12.4531,68.82813 -3.9336,86.52735 -17.6992,19.66406 -62.9297,34.74218 -91.7734,43.91796 -26.2188,7.86719 -62.9297,33.4336 -73.418,58.9961 -4.5859,11.14453 -8.5195,8.52344 -2.6211,-2.6211 16.3867,-30.80859 46.543,-51.1289 75.3828,-62.92968 24.9102,-9.83203 69.4883,-25.56641 87.8399,-45.23047 14.4218,-15.73047 11.1445,-58.9961 2.625,-76.69531 -31.4649,-66.20704 -64.8985,-106.19141 -72.7657,-181.57813 -3.2773,-30.80859 -5.8984,-56.375 -39.3281,-81.28125 -12.457,-9.17969 -9.832,-13.76562 0,-6.55469 z m 0,0"
     fill-opacity="1"
     fill-rule="nonzero"
     id="path22" />
  <path
     fill="#ebebeb"
     d="m 385.88957,775.12862 c 20.97657,7.21094 89.80469,9.83203 92.42578,-20.32031 0.65625,-4.58985 -17.69921,-5.2461 -18.35546,-1.3125 -7.21094,23.59765 -57.02735,21.63281 -73.41797,17.69921 -7.21094,-1.3125 -8.51953,1.3125 -0.65235,3.9336 z m 229.42971,-20.32031 c 0,-7.21094 -20.9766,-6.55469 -21.6328,1.96484 -1.9688,78.00781 -258.92972,64.89453 -313.33597,47.85156 -7.86719,-2.62109 -8.52344,0.65625 -0.65625,3.9336 61.61719,22.94531 339.55862,36.05468 335.62502,-53.75 z m -293.01564,43.26171 c 30.80859,7.86719 252.37104,22.28907 237.94921,-41.95312 -1.30859,-5.24219 -20.97656,-5.24219 -20.32031,1.3125 1.3125,45.23047 -182.23047,45.23047 -216.97265,37.36328 -8.52344,-1.96484 -8.52344,1.3125 -0.65625,3.27734 z m 0,0"
     fill-opacity="1"
     fill-rule="nonzero"
     id="path24" />
  <path
     fill="#ebebeb"
     d="m 926.68648,116.33565 c 0,-0.65625 0.6562,-1.30859 0.6562,-1.96484 l 9.1758,-41.29688 c 2.625,-11.144531 -0.6523,-11.800781 -10.4883,-20.324219 C 882.11228,16.69893 853.26848,-4.9338817 800.82708,0.96455529 756.25288,6.2106493 719.54578,37.019243 692.01458,81.593459 c -5.2461,7.86719 -7.8672,6.55469 -3.9336,14.42188 l 17.6992,32.121091 c -13.7656,-2.62109 -26.2226,4.58594 -30.1562,26.21875 -4.586,26.22266 28.1875,96.36328 59.6523,93.08203 11.1445,-1.30859 20.3203,-7.20703 20.9766,-19.66406 0.6562,-7.21094 -5.8985,-6.55469 -5.8985,0.65625 0,2.62109 -0.6562,4.58984 -1.3125,6.55469 -0.6562,-1.3125 -1.3086,-3.27735 -2.6211,-4.58985 -24.2539,-26.875 -36.0546,-53.75 -34.0859,-89.14843 0,-0.65625 0,-1.3125 0,-1.96485 3.2774,1.3086 6.5547,3.27735 10.4883,5.89844 9.832,5.89844 13.7656,1.30859 3.9336,-5.89844 -4.5899,-3.27734 -9.1797,-6.55859 -13.7656,-7.86719 0,-0.65625 -0.6563,-1.3125 -0.6563,-1.96875 l -13.1094,-36.050781 c -1.9687,-5.90234 -1.3125,-4.58984 2.6211,-9.83203 32.1211,-44.578122 62.9297,-52.441404 100.293,-55.718748 37.3633,-3.277343 74.0742,1.308594 117.9922,33.429688 5.8984,4.589844 5.2461,1.964844 4.5898,9.175781 l -2.6211,43.92188 c 0,0.65625 0,0.65625 0,1.30859 -6.5586,-1.96484 -13.1132,-1.96484 -18.3554,0 -17.043,5.90234 -5.2461,39.98828 -3.2774,55.71875 1.9649,13.76562 -2.625,33.43359 -7.2109,46.54297 -1.9688,5.24219 -3.2774,9.17578 4.5859,12.45312 38.6758,17.04297 68.8321,-17.04297 69.4844,-57.68359 -0.6523,-22.94141 -20.3203,-47.85156 -40.6406,-56.375 z m -186.1641,120.61328 c 1.9649,1.3125 3.2774,2.625 4.5859,2.625 -2.621,1.96484 -5.8984,2.62109 -9.832,1.96484 -28.1875,-5.24218 -47.8515,-60.30468 -43.918,-82.59375 1.9649,-12.45703 5.2422,-19.01171 9.8321,-20.32031 -4.5899,36.70703 9.832,74.07031 39.332,98.32422 z m 159.9453,-22.28516 c 4.586,-13.76562 11.1446,-35.39843 11.1446,-49.82031 0,-11.14453 -10.4883,-32.77344 -1.9688,-36.05078 2.6211,-0.65625 4.5898,-1.3125 6.5547,-1.3125 0,0.65625 0,1.96484 0.6562,2.62109 8.5235,30.15625 1.3125,65.55079 -9.832,94.39454 0,0.65625 0,0.65625 -0.6562,1.3125 -1.9649,-0.65625 -4.5899,-1.96875 -7.211,-3.27735 -1.9648,-1.3125 0.6563,-5.90234 1.3125,-7.86719 z m 11.1446,12.45313 c 0.6523,-1.30859 1.9648,-2.62109 2.621,-4.58594 16.3868,-28.1875 26.2188,-62.27344 10.4883,-94.39453 14.4219,4.58594 22.2852,23.59766 22.2852,43.26172 0,28.84375 -9.1758,60.30859 -35.3945,55.71875 z m 0,0"
     fill-opacity="1"
     fill-rule="nonzero"
     id="path26" />
  <path
     fill="#ebebeb"
     d="m 1202.6591,782.33956 c 23.5977,7.86718 98.3282,11.14453 104.2266,-17.69922 1.3125,-5.2461 -13.7656,-4.58985 -15.0781,-0.65625 -10.4883,25.5664 -85.2149,20.97656 -95.7032,9.83203 -8.5234,-7.86719 -6.5546,3.93359 6.5547,8.52344 z m 215.0078,-3.9336 c -11.8007,88.49219 -304.8125,57.6836 -338.2461,21.63281 -8.5195,-9.17968 -3.9335,5.24219 7.211,11.14063 55.0625,30.8125 343.4922,60.96484 349.3906,-34.74219 0.6563,-7.86328 -17.043,-7.86328 -18.3555,1.96875 z m -284.4921,24.25391 c 45.2304,19.00781 256.3046,40.64062 249.0937,-28.1875 -0.6562,-5.89844 -13.7656,-9.17578 -13.7656,-1.96485 -3.9336,51.78516 -208.4531,48.50782 -241.8828,20.97657 -10.4883,-7.86719 -3.9336,5.24218 6.5547,9.17578 z m 0,0"
     fill-opacity="1"
     fill-rule="nonzero"
     id="path28" />
  <g
     fill="#000000"
     fill-opacity="0.702"
     id="g36"
     transform="translate(-432.54402,-22.883101)">
    <g
       transform="translate(419.71576,1022.8173)"
       id="g34">
      <g
         id="g32">
        <path
           d="m 91.28125,-110.45313 -27.484375,75.500005 c -0.792969,2.261719 -0.625,4.214844 0.5,5.859375 1.132813,1.636719 2.890625,2.453125 5.265625,2.453125 h 59.375 L 119.26563,0 H 45.8125 c -1.585938,0 -3.027344,-0.195312 -4.328125,-0.59375 -1.304687,-0.394531 -2.40625,-1.046875 -3.3125,-1.953125 l -15.09375,-12.21875 c -1.46875,-1.46875 -2.351563,-3.300781 -2.640625,-5.5 -0.28125,-2.207031 -0.02734,-4.5 0.765625,-6.875 L 51.40625,-110.45313 Z m 0,0"
           id="path30" />
      </g>
    </g>
  </g>
  <g
     fill="#000000"
     fill-opacity="0.702"
     id="g44"
     transform="translate(-432.54402,-22.883101)">
    <g
       transform="translate(546.0898,1022.8173)"
       id="g42">
      <g
         id="g40">
        <path
           d="M 47.671875,-95.515625 H 83.8125 L 49.203125,0 H 13.0625 Z M 60.90625,-131.82812 H 97.046875 L 87.375,-105.01563 H 51.234375 Z m 0,0"
           id="path38" />
      </g>
    </g>
  </g>
  <g
     fill="#000000"
     fill-opacity="0.702"
     id="g52"
     transform="translate(-432.54402,-22.883101)">
    <g
       transform="translate(608.34384,1022.8173)"
       id="g50">
      <g
         id="g48">
        <path
           d="m 69.046875,-30.203125 c -0.679687,2.042969 -0.539063,3.742187 0.421875,5.09375 0.96875,1.355469 2.351562,2.03125 4.15625,2.03125 h 26.8125 L 92.125,0 H 56.5 C 55.25,0 54.03125,-0.164062 52.84375,-0.5 51.65625,-0.84375 50.664062,-1.410156 49.875,-2.203125 L 34.09375,-17.3125 C 31.269531,-20.132812 30.648438,-23.695312 32.234375,-28 l 16.125,-44.4375 -10.703125,-8.484375 5.265625,-14.59375 h 13.75 l 7.28125,-19.687505 h 36.140625 l -7.296875,19.687505 h 33.937505 l -8.3125,23.078125 H 84.484375 Z m 0,0"
           id="path46" />
      </g>
    </g>
  </g>
  <g
     fill="#000000"
     fill-opacity="0.702"
     id="g60"
     transform="translate(-432.54402,-22.883101)">
    <g
       transform="translate(708.76454,1022.8173)"
       id="g58">
      <g
         id="g56">
        <path
           d="m 69.046875,-30.203125 c -0.679687,2.042969 -0.539063,3.742187 0.421875,5.09375 0.96875,1.355469 2.351562,2.03125 4.15625,2.03125 h 26.8125 L 92.125,0 H 56.5 C 55.25,0 54.03125,-0.164062 52.84375,-0.5 51.65625,-0.84375 50.664062,-1.410156 49.875,-2.203125 L 34.09375,-17.3125 C 31.269531,-20.132812 30.648438,-23.695312 32.234375,-28 l 16.125,-44.4375 -10.703125,-8.484375 5.265625,-14.59375 h 13.75 l 7.28125,-19.687505 h 36.140625 l -7.296875,19.687505 h 33.937505 l -8.3125,23.078125 H 84.484375 Z m 0,0"
           id="path54" />
      </g>
    </g>
  </g>
  <g
     fill="#000000"
     fill-opacity="0.702"
     id="g68"
     transform="translate(-432.54402,-22.883101)">
    <g
       transform="translate(809.18525,1022.8173)"
       id="g66">
      <g
         id="g64">
        <path
           d="m 54.296875,-14.078125 c -1.136719,2.9375 -3.0625,5.085937 -5.78125,6.4375 l -12.375,6.28125 C 34.671875,-0.453125 33.085938,0 31.390625,0 H 13.0625 l 39.359375,-108.23438 c 1.132813,-2.94531 3.054687,-5.09765 5.765625,-6.45312 l 12.046875,-6.28125 c 1.582031,-0.90625 3.28125,-1.35938 5.09375,-1.35938 H 93.65625 Z m 0,0"
           id="path62" />
      </g>
    </g>
  </g>
  <g
     fill="#000000"
     fill-opacity="0.702"
     id="g76"
     transform="translate(-432.54402,-22.883101)">
    <g
       transform="translate(871.43929,1022.8173)"
       id="g74">
      <g
         id="g72">
        <path
           d="M 22.734375,-17.3125 C 19.910156,-20.132812 19.289062,-23.695312 20.875,-28 l 14.40625,-39.6875 c 3.394531,-9.5 9.132812,-16.507812 17.21875,-21.03125 8.09375,-4.53125 17.625,-6.796875 28.59375,-6.796875 h 40.375 c 11.08203,0 19.02344,2.265625 23.82812,6.796875 4.8125,4.523438 5.52344,11.53125 2.14063,21.03125 L 143.35937,-56.5 c -1.58593,4.53125 -4.80859,8.09375 -9.67187,10.6875 l -20.53125,10.359375 c -1.24219,0.792969 -2.59375,1.386719 -4.0625,1.78125 -1.46875,0.398437 -2.82812,0.59375 -4.07812,0.59375 H 71.09375 L 63.625,-46.3125 57.6875,-30.203125 c -0.679688,2.042969 -0.570312,3.742187 0.328125,5.09375 0.90625,1.355469 2.320313,2.03125 4.25,2.03125 H 126.90625 L 118.59375,0 H 45.125 c -1.242188,0 -2.453125,-0.164062 -3.640625,-0.5 -1.1875,-0.34375 -2.179687,-0.910156 -2.96875,-1.703125 z m 47.84375,-48 -3.390625,9.328125 h 35.10938 c 2.03906,0 4.01953,-0.734375 5.9375,-2.203125 1.92578,-1.46875 3.28515,-3.222656 4.07812,-5.265625 l 0.67188,-1.859375 c 0.6875,-2.039062 0.57812,-3.738281 -0.32813,-5.09375 -0.90625,-1.351562 -2.38281,-2.03125 -4.42187,-2.03125 H 80.421875 c -2.042969,0 -4.027344,0.679688 -5.953125,2.03125 -1.917969,1.355469 -3.214844,3.054688 -3.890625,5.09375 z m 0,0"
           id="path70" />
      </g>
    </g>
  </g>
  <g
     fill="#000000"
     fill-opacity="0.702"
     id="g90"
     transform="translate(-432.54402,-22.883101)">
    <g
       transform="translate(1073.8073,1022.8173)"
       id="g88">
      <g
         id="g86">
        <path
           d="M 148.28125,-63.625 141.5,-60.0625 c 5.53906,1.25 9.30078,3.742188 11.28125,7.46875 1.97656,3.730469 1.94531,8.421875 -0.0937,14.078125 l -4.0625,11.375 c -0.79297,2.375 -2.17969,4.667969 -4.15625,6.875 -1.98047,2.199219 -4.27344,4.03125 -6.875,5.5 l -23.92187,12.21875 c -1.46875,0.90625 -2.9961,1.558594 -4.57813,1.953125 C 107.50781,-0.195312 105.92578,0 104.34375,0 H 10.6875 l 40.046875,-110.45313 h 79.562495 c 12.78125,0 21.94141,2.60547 27.48438,7.8125 5.53906,5.199224 6.33203,13.289068 2.375,24.26563 L 159.3125,-76 c -0.90625,2.375 -2.32422,4.667969 -4.25,6.875 -1.91797,2.199219 -4.17969,4.03125 -6.78125,5.5 z m -88.046875,36.984375 h 38.5 c 2.269535,0 4.476565,-0.617187 6.625005,-1.859375 2.14453,-1.25 3.84375,-3.566406 5.09375,-6.953125 1.23828,-3.394531 1.23437,-5.6875 -0.0156,-6.875 -1.24219,-1.1875 -2.99219,-1.78125 -5.25,-1.78125 H 66.5 Z M 107.21875,-66 c 2.25781,0 4.51953,-0.644531 6.78125,-1.9375 2.26953,-1.300781 3.96875,-3.648438 5.09375,-7.046875 1.25,-3.394531 1.25,-5.710937 0,-6.953125 -1.24219,-1.25 -2.93359,-1.875 -5.07812,-1.875 H 80.921875 L 74.484375,-66 Z m 0,0"
           id="path84" />
      </g>
    </g>
  </g>
  <g
     fill="#000000"
     fill-opacity="0.702"
     id="g98"
     transform="translate(-432.54402,-22.883101)">
    <g
       transform="translate(1221.5546,1022.8173)"
       id="g96">
      <g
         id="g94">
        <path
           d="M 47.671875,-95.515625 H 83.8125 L 49.203125,0 H 13.0625 Z M 60.90625,-131.82812 H 97.046875 L 87.375,-105.01563 H 51.234375 Z m 0,0"
           id="path92" />
      </g>
    </g>
  </g>
  <g
     fill="#000000"
     fill-opacity="0.702"
     id="g106"
     transform="translate(-432.54402,-22.883101)">
    <g
       transform="translate(1283.8086,1022.8173)"
       id="g104">
      <g
         id="g102">
        <path
           d="m 161,-95.515625 -33.92187,93.65625 c -0.79297,2.144531 -2.03907,4.117187 -3.73438,5.921875 -1.69922,1.8125 -3.67969,3.398438 -5.9375,4.765625 l -26.984375,15.09375 c -1.242187,0.789063 -2.59375,1.351563 -4.0625,1.6875 C 84.890625,25.953125 83.53125,26.125 82.28125,26.125 H 8.828125 L 17.3125,3.046875 h 64.796875 c 1.925781,0 3.847656,-0.679687 5.765625,-2.03125 1.925781,-1.351563 3.226562,-3.050781 3.90625,-5.09375 L 97.546875,-19.6875 76.859375,-7.640625 H 38.34375 c -7.46875,0 -12.730469,-2.34375 -15.78125,-7.03125 -3.054688,-4.695313 -3.21875,-10.832031 -0.5,-18.40625 L 36.46875,-72.4375 c 2.71875,-7.46875 6.765625,-13.179688 12.140625,-17.140625 5.375,-3.957031 11.789063,-5.9375 19.25,-5.9375 H 115.875 l 6.60938,6.953125 2.54687,-6.953125 z m -100.9375,57.6875 c -0.792969,2.03125 -0.765625,3.730469 0.07813,5.09375 0.851563,1.355469 2.296875,2.03125 4.328125,2.03125 H 101.45314 L 116.71875,-72.4375 H 79.734375 c -2.03125,0 -3.980469,0.679688 -5.84375,2.03125 -1.867187,1.355469 -3.140625,3.054688 -3.828125,5.09375 z m 0,0"
           id="path100" />
      </g>
    </g>
  </g>
  <g
     fill="#000000"
     fill-opacity="0.702"
     id="g120"
     transform="translate(-432.54402,-22.883101)">
    <g
       transform="translate(1492.1137,1022.8173)"
       id="g118">
      <g
         id="g116">
        <path
           d="m 158.125,-68.703125 -13.23438,36.46875 c -0.90625,2.492187 -2.29296,4.757813 -4.15625,6.796875 -1.86718,2.03125 -4.04296,3.78125 -6.53125,5.25 L 102.8125,-2.546875 c -1.46875,0.90625 -2.96875,1.558594 -4.5,1.953125 C 96.789062,-0.195312 95.238281,0 93.65625,0 H 10.015625 L 19.6875,-26.640625 h 74.984375 c 2.375,0 4.632813,-0.816406 6.781255,-2.453125 2.14453,-1.644531 3.61328,-3.597656 4.40625,-5.859375 l 2.71875,-7.125 H 25.28125 l 13.0625,-36.140625 c 2.03125,-5.3125 5.765625,-9.492188 11.203125,-12.546875 L 80.59375,-107.90625 c 1.582031,-0.90625 3.132812,-1.55469 4.65625,-1.95313 1.53125,-0.39453 3.03125,-0.59375 4.5,-0.59375 h 83.46875 l -9.67188,26.64063 H 88.734375 c -2.375,0 -4.667969,0.792969 -6.875,2.375 -2.210937,1.585938 -3.765625,3.5625 -4.671875,5.9375 l -2.375,6.796875 z m 0,0"
           id="path114" />
      </g>
    </g>
  </g>
  <g
     fill="#000000"
     fill-opacity="0.702"
     id="g128"
     transform="translate(-432.54402,-22.883101)">
    <g
       transform="translate(1635.2811,1022.8173)"
       id="g126">
      <g
         id="g124">
        <path
           d="M 39.703125,0 C 36.753906,0 34.601562,-0.734375 33.25,-2.203125 L 19.84375,-12.546875 C 17.363281,-15.378906 16.914062,-19.054688 18.5,-23.578125 L 34.609375,-67.6875 c 3.394531,-9.5 9.132813,-16.507812 17.21875,-21.03125 8.082031,-4.53125 17.613281,-6.796875 28.59375,-6.796875 h 51.062495 c 2.9375,0 5.14063,0.792969 6.60938,2.375 l 13.0625,10.171875 c 2.83203,3.0625 3.45703,6.742188 1.875,11.03125 l -16.125,44.109375 c -3.5,9.5 -9.26562,16.515625 -17.29687,21.046875 C 111.57813,-2.257812 102.01953,0 90.9375,0 Z M 57,-30.203125 c -0.679688,2.042969 -0.5625,3.742187 0.34375,5.09375 0.90625,1.355469 2.375,2.03125 4.40625,2.03125 h 30.375 c 1.914062,0 3.835938,-0.675781 5.765625,-2.03125 1.925781,-1.351563 3.226565,-3.050781 3.906255,-5.09375 L 114.6875,-65.3125 c 0.67578,-2.039062 0.5625,-3.738281 -0.34375,-5.09375 -0.90625,-1.351562 -2.375,-2.03125 -4.40625,-2.03125 h -30.375 c -1.917969,0 -3.839844,0.679688 -5.765625,2.03125 -1.917969,1.355469 -3.21875,3.054688 -3.90625,5.09375 z m 0,0"
           id="path122" />
      </g>
    </g>
  </g>
  <g
     fill="#000000"
     fill-opacity="0.702"
     id="g136"
     transform="translate(-432.54402,-22.883101)">
    <g
       transform="translate(1772.0024,1022.8173)"
       id="g134">
      <g
         id="g132">
        <path
           d="m 125.89063,-95.515625 h 35.96874 L 127.25,0 H 95.171875 L 95.6875,-12.046875 75.328125,0 h -46.3125 C 23.921875,0 20.242188,-1.78125 17.984375,-5.34375 15.722656,-8.90625 15.5,-13.234375 17.3125,-18.328125 l 27.984375,-77.1875 H 81.4375 l -23.75,65.3125 c -0.679688,2.042969 -0.59375,3.742187 0.25,5.09375 0.84375,1.355469 2.285156,2.03125 4.328125,2.03125 H 99.59375 Z m 0,0"
           id="path130" />
      </g>
    </g>
  </g>
  <g
     fill="#000000"
     fill-opacity="0.702"
     id="g144"
     transform="translate(-432.54402,-22.883101)">
    <g
       transform="translate(1909.9112,1022.8173)"
       id="g142">
      <g
         id="g140">
        <path
           d="m 146.07812,-95.515625 c 5.08204,0 8.75391,1.78125 11.01563,5.34375 2.26953,3.5625 2.44141,7.890625 0.51562,12.984375 L 129.625,0 H 93.8125 l 23.76563,-65.3125 c 0.67578,-2.039062 0.53125,-3.738281 -0.4375,-5.09375 -0.96094,-1.351562 -2.39844,-2.03125 -4.3125,-2.03125 H 73.125 L 46.828125,0 H 10.6875 L 45.296875,-95.515625 H 81.4375 l -4.75,13.0625 21.875,-13.0625 z m 0,0"
           id="path138" />
      </g>
    </g>
  </g>
  <g
     fill="#000000"
     fill-opacity="0.702"
     id="g152"
     transform="translate(-432.54402,-22.883101)">
    <g
       transform="translate(2050.1948,1022.8173)"
       id="g150">
      <g
         id="g148">
        <path
           d="m 122.48438,-88.5625 12.39062,-33.76563 h 35.96875 L 126.39063,0 H 93.984375 l 0.6875,-12.046875 L 74.140625,0 H 35.625 c -7.460938,0 -12.71875,-2.375 -15.78125,-7.125 -3.054688,-4.75 -3.21875,-10.859375 -0.5,-18.328125 l 17.125,-46.984375 c 2.71875,-7.46875 6.765625,-13.179688 12.140625,-17.140625 5.375,-3.957031 11.789063,-5.9375 19.25,-5.9375 H 115.875 Z m -65.312505,58.359375 c -0.679687,2.042969 -0.59375,3.742187 0.25,5.09375 0.851563,1.355469 2.296875,2.03125 4.328125,2.03125 H 98.734375 L 116.71875,-72.4375 H 79.734375 c -2.03125,0 -3.980469,0.679688 -5.84375,2.03125 -1.867187,1.355469 -3.140625,3.054688 -3.828125,5.09375 z m 0,0"
           id="path146" />
      </g>
    </g>
  </g>
  <g
     fill="#ebebeb"
     fill-opacity="1"
     id="g160"
     transform="translate(-432.54402,-22.883101)">
    <g
       transform="translate(412.21732,1015.3188)"
       id="g158">
      <g
         id="g156">
        <path
           d="m 91.28125,-110.45313 -27.484375,75.500005 c -0.792969,2.261719 -0.625,4.214844 0.5,5.859375 1.132813,1.636719 2.890625,2.453125 5.265625,2.453125 h 59.375 L 119.26563,0 H 45.8125 c -1.585938,0 -3.027344,-0.195312 -4.328125,-0.59375 -1.304687,-0.394531 -2.40625,-1.046875 -3.3125,-1.953125 l -15.09375,-12.21875 c -1.46875,-1.46875 -2.351563,-3.300781 -2.640625,-5.5 -0.28125,-2.207031 -0.02734,-4.5 0.765625,-6.875 L 51.40625,-110.45313 Z m 0,0"
           id="path154" />
      </g>
    </g>
  </g>
  <g
     fill="#ebebeb"
     fill-opacity="1"
     id="g168"
     transform="translate(-432.54402,-22.883101)">
    <g
       transform="translate(538.59135,1015.3188)"
       id="g166">
      <g
         id="g164">
        <path
           d="M 47.671875,-95.515625 H 83.8125 L 49.203125,0 H 13.0625 Z M 60.90625,-131.82812 H 97.046875 L 87.375,-105.01563 H 51.234375 Z m 0,0"
           id="path162" />
      </g>
    </g>
  </g>
  <g
     fill="#ebebeb"
     fill-opacity="1"
     id="g176"
     transform="translate(-432.54402,-22.883101)">
    <g
       transform="translate(600.84539,1015.3188)"
       id="g174">
      <g
         id="g172">
        <path
           d="m 69.046875,-30.203125 c -0.679687,2.042969 -0.539063,3.742187 0.421875,5.09375 0.96875,1.355469 2.351562,2.03125 4.15625,2.03125 h 26.8125 L 92.125,0 H 56.5 C 55.25,0 54.03125,-0.164062 52.84375,-0.5 51.65625,-0.84375 50.664062,-1.410156 49.875,-2.203125 L 34.09375,-17.3125 C 31.269531,-20.132812 30.648438,-23.695312 32.234375,-28 l 16.125,-44.4375 -10.703125,-8.484375 5.265625,-14.59375 h 13.75 l 7.28125,-19.687505 h 36.140625 l -7.296875,19.687505 h 33.937505 l -8.3125,23.078125 H 84.484375 Z m 0,0"
           id="path170" />
      </g>
    </g>
  </g>
  <g
     fill="#ebebeb"
     fill-opacity="1"
     id="g184"
     transform="translate(-432.54402,-22.883101)">
    <g
       transform="translate(701.26609,1015.3188)"
       id="g182">
      <g
         id="g180">
        <path
           d="m 69.046875,-30.203125 c -0.679687,2.042969 -0.539063,3.742187 0.421875,5.09375 0.96875,1.355469 2.351562,2.03125 4.15625,2.03125 h 26.8125 L 92.125,0 H 56.5 C 55.25,0 54.03125,-0.164062 52.84375,-0.5 51.65625,-0.84375 50.664062,-1.410156 49.875,-2.203125 L 34.09375,-17.3125 C 31.269531,-20.132812 30.648438,-23.695312 32.234375,-28 l 16.125,-44.4375 -10.703125,-8.484375 5.265625,-14.59375 h 13.75 l 7.28125,-19.687505 h 36.140625 l -7.296875,19.687505 h 33.937505 l -8.3125,23.078125 H 84.484375 Z m 0,0"
           id="path178" />
      </g>
    </g>
  </g>
  <g
     fill="#ebebeb"
     fill-opacity="1"
     id="g192"
     transform="translate(-432.54402,-22.883101)">
    <g
       transform="translate(801.6868,1015.3188)"
       id="g190">
      <g
         id="g188">
        <path
           d="m 54.296875,-14.078125 c -1.136719,2.9375 -3.0625,5.085937 -5.78125,6.4375 l -12.375,6.28125 C 34.671875,-0.453125 33.085938,0 31.390625,0 H 13.0625 l 39.359375,-108.23438 c 1.132813,-2.94531 3.054687,-5.09765 5.765625,-6.45312 l 12.046875,-6.28125 c 1.582031,-0.90625 3.28125,-1.35938 5.09375,-1.35938 H 93.65625 Z m 0,0"
           id="path186" />
      </g>
    </g>
  </g>
  <g
     fill="#ebebeb"
     fill-opacity="1"
     id="g200"
     transform="translate(-432.54402,-22.883101)">
    <g
       transform="translate(863.94084,1015.3188)"
       id="g198">
      <g
         id="g196">
        <path
           d="M 22.734375,-17.3125 C 19.910156,-20.132812 19.289062,-23.695312 20.875,-28 l 14.40625,-39.6875 c 3.394531,-9.5 9.132812,-16.507812 17.21875,-21.03125 8.09375,-4.53125 17.625,-6.796875 28.59375,-6.796875 h 40.375 c 11.08203,0 19.02344,2.265625 23.82812,6.796875 4.8125,4.523438 5.52344,11.53125 2.14063,21.03125 L 143.35937,-56.5 c -1.58593,4.53125 -4.80859,8.09375 -9.67187,10.6875 l -20.53125,10.359375 c -1.24219,0.792969 -2.59375,1.386719 -4.0625,1.78125 -1.46875,0.398437 -2.82812,0.59375 -4.07812,0.59375 H 71.09375 L 63.625,-46.3125 57.6875,-30.203125 c -0.679688,2.042969 -0.570312,3.742187 0.328125,5.09375 0.90625,1.355469 2.320313,2.03125 4.25,2.03125 H 126.90625 L 118.59375,0 H 45.125 c -1.242188,0 -2.453125,-0.164062 -3.640625,-0.5 -1.1875,-0.34375 -2.179687,-0.910156 -2.96875,-1.703125 z m 47.84375,-48 -3.390625,9.328125 h 35.10938 c 2.03906,0 4.01953,-0.734375 5.9375,-2.203125 1.92578,-1.46875 3.28515,-3.222656 4.07812,-5.265625 l 0.67188,-1.859375 c 0.6875,-2.039062 0.57812,-3.738281 -0.32813,-5.09375 -0.90625,-1.351562 -2.38281,-2.03125 -4.42187,-2.03125 H 80.421875 c -2.042969,0 -4.027344,0.679688 -5.953125,2.03125 -1.917969,1.355469 -3.214844,3.054688 -3.890625,5.09375 z m 0,0"
           id="path194" />
      </g>
    </g>
  </g>
  <g
     fill="#ebebeb"
     fill-opacity="1"
     id="g214"
     transform="translate(-432.54402,-22.883101)">
    <g
       transform="translate(1066.3088,1015.3188)"
       id="g212">
      <g
         id="g210">
        <path
           d="M 148.28125,-63.625 141.5,-60.0625 c 5.53906,1.25 9.30078,3.742188 11.28125,7.46875 1.97656,3.730469 1.94531,8.421875 -0.0937,14.078125 l -4.0625,11.375 c -0.79297,2.375 -2.17969,4.667969 -4.15625,6.875 -1.98047,2.199219 -4.27344,4.03125 -6.875,5.5 l -23.92187,12.21875 c -1.46875,0.90625 -2.9961,1.558594 -4.57813,1.953125 C 107.50781,-0.195312 105.92578,0 104.34375,0 H 10.6875 l 40.046875,-110.45313 h 79.562495 c 12.78125,0 21.94141,2.60547 27.48438,7.8125 5.53906,5.199224 6.33203,13.289068 2.375,24.26563 L 159.3125,-76 c -0.90625,2.375 -2.32422,4.667969 -4.25,6.875 -1.91797,2.199219 -4.17969,4.03125 -6.78125,5.5 z m -88.046875,36.984375 h 38.5 c 2.269535,0 4.476565,-0.617187 6.625005,-1.859375 2.14453,-1.25 3.84375,-3.566406 5.09375,-6.953125 1.23828,-3.394531 1.23437,-5.6875 -0.0156,-6.875 -1.24219,-1.1875 -2.99219,-1.78125 -5.25,-1.78125 H 66.5 Z M 107.21875,-66 c 2.25781,0 4.51953,-0.644531 6.78125,-1.9375 2.26953,-1.300781 3.96875,-3.648438 5.09375,-7.046875 1.25,-3.394531 1.25,-5.710937 0,-6.953125 -1.24219,-1.25 -2.93359,-1.875 -5.07812,-1.875 H 80.921875 L 74.484375,-66 Z m 0,0"
           id="path208" />
      </g>
    </g>
  </g>
  <g
     fill="#ebebeb"
     fill-opacity="1"
     id="g222"
     transform="translate(-432.54402,-22.883101)">
    <g
       transform="translate(1214.0561,1015.3188)"
       id="g220">
      <g
         id="g218">
        <path
           d="M 47.671875,-95.515625 H 83.8125 L 49.203125,0 H 13.0625 Z M 60.90625,-131.82812 H 97.046875 L 87.375,-105.01563 H 51.234375 Z m 0,0"
           id="path216" />
      </g>
    </g>
  </g>
  <g
     fill="#ebebeb"
     fill-opacity="1"
     id="g230"
     transform="translate(-432.54402,-22.883101)">
    <g
       transform="translate(1276.3102,1015.3188)"
       id="g228">
      <g
         id="g226">
        <path
           d="m 161,-95.515625 -33.92187,93.65625 c -0.79297,2.144531 -2.03907,4.117187 -3.73438,5.921875 -1.69922,1.8125 -3.67969,3.398438 -5.9375,4.765625 l -26.984375,15.09375 c -1.242187,0.789063 -2.59375,1.351563 -4.0625,1.6875 C 84.890625,25.953125 83.53125,26.125 82.28125,26.125 H 8.828125 L 17.3125,3.046875 h 64.796875 c 1.925781,0 3.847656,-0.679687 5.765625,-2.03125 1.925781,-1.351563 3.226562,-3.050781 3.90625,-5.09375 L 97.546875,-19.6875 76.859375,-7.640625 H 38.34375 c -7.46875,0 -12.730469,-2.34375 -15.78125,-7.03125 -3.054688,-4.695313 -3.21875,-10.832031 -0.5,-18.40625 L 36.46875,-72.4375 c 2.71875,-7.46875 6.765625,-13.179688 12.140625,-17.140625 5.375,-3.957031 11.789063,-5.9375 19.25,-5.9375 H 115.875 l 6.60938,6.953125 2.54687,-6.953125 z m -100.9375,57.6875 c -0.792969,2.03125 -0.765625,3.730469 0.07813,5.09375 0.851563,1.355469 2.296875,2.03125 4.328125,2.03125 H 101.45314 L 116.71875,-72.4375 H 79.734375 c -2.03125,0 -3.980469,0.679688 -5.84375,2.03125 -1.867187,1.355469 -3.140625,3.054688 -3.828125,5.09375 z m 0,0"
           id="path224" />
      </g>
    </g>
  </g>
  <g
     fill="#ebebeb"
     fill-opacity="1"
     id="g244"
     transform="translate(-432.54402,-22.883101)">
    <g
       transform="translate(1484.6152,1015.3188)"
       id="g242">
      <g
         id="g240">
        <path
           d="m 158.125,-68.703125 -13.23438,36.46875 c -0.90625,2.492187 -2.29296,4.757813 -4.15625,6.796875 -1.86718,2.03125 -4.04296,3.78125 -6.53125,5.25 L 102.8125,-2.546875 c -1.46875,0.90625 -2.96875,1.558594 -4.5,1.953125 C 96.789062,-0.195312 95.238281,0 93.65625,0 H 10.015625 L 19.6875,-26.640625 h 74.984375 c 2.375,0 4.632813,-0.816406 6.781255,-2.453125 2.14453,-1.644531 3.61328,-3.597656 4.40625,-5.859375 l 2.71875,-7.125 H 25.28125 l 13.0625,-36.140625 c 2.03125,-5.3125 5.765625,-9.492188 11.203125,-12.546875 L 80.59375,-107.90625 c 1.582031,-0.90625 3.132812,-1.55469 4.65625,-1.95313 1.53125,-0.39453 3.03125,-0.59375 4.5,-0.59375 h 83.46875 l -9.67188,26.64063 H 88.734375 c -2.375,0 -4.667969,0.792969 -6.875,2.375 -2.210937,1.585938 -3.765625,3.5625 -4.671875,5.9375 l -2.375,6.796875 z m 0,0"
           id="path238" />
      </g>
    </g>
  </g>
  <g
     fill="#ebebeb"
     fill-opacity="1"
     id="g252"
     transform="translate(-432.54402,-22.883101)">
    <g
       transform="translate(1627.7826,1015.3188)"
       id="g250">
      <g
         id="g248">
        <path
           d="M 39.703125,0 C 36.753906,0 34.601562,-0.734375 33.25,-2.203125 L 19.84375,-12.546875 C 17.363281,-15.378906 16.914062,-19.054688 18.5,-23.578125 L 34.609375,-67.6875 c 3.394531,-9.5 9.132813,-16.507812 17.21875,-21.03125 8.082031,-4.53125 17.613281,-6.796875 28.59375,-6.796875 h 51.062495 c 2.9375,0 5.14063,0.792969 6.60938,2.375 l 13.0625,10.171875 c 2.83203,3.0625 3.45703,6.742188 1.875,11.03125 l -16.125,44.109375 c -3.5,9.5 -9.26562,16.515625 -17.29687,21.046875 C 111.57813,-2.257812 102.01953,0 90.9375,0 Z M 57,-30.203125 c -0.679688,2.042969 -0.5625,3.742187 0.34375,5.09375 0.90625,1.355469 2.375,2.03125 4.40625,2.03125 h 30.375 c 1.914062,0 3.835938,-0.675781 5.765625,-2.03125 1.925781,-1.351563 3.226565,-3.050781 3.906255,-5.09375 L 114.6875,-65.3125 c 0.67578,-2.039062 0.5625,-3.738281 -0.34375,-5.09375 -0.90625,-1.351562 -2.375,-2.03125 -4.40625,-2.03125 h -30.375 c -1.917969,0 -3.839844,0.679688 -5.765625,2.03125 -1.917969,1.355469 -3.21875,3.054688 -3.90625,5.09375 z m 0,0"
           id="path246" />
      </g>
    </g>
  </g>
  <g
     fill="#ebebeb"
     fill-opacity="1"
     id="g260"
     transform="translate(-432.54402,-22.883101)">
    <g
       transform="translate(1764.504,1015.3188)"
       id="g258">
      <g
         id="g256">
        <path
           d="m 125.89063,-95.515625 h 35.96874 L 127.25,0 H 95.171875 L 95.6875,-12.046875 75.328125,0 h -46.3125 C 23.921875,0 20.242188,-1.78125 17.984375,-5.34375 15.722656,-8.90625 15.5,-13.234375 17.3125,-18.328125 l 27.984375,-77.1875 H 81.4375 l -23.75,65.3125 c -0.679688,2.042969 -0.59375,3.742187 0.25,5.09375 0.84375,1.355469 2.285156,2.03125 4.328125,2.03125 H 99.59375 Z m 0,0"
           id="path254" />
      </g>
    </g>
  </g>
  <g
     fill="#ebebeb"
     fill-opacity="1"
     id="g268"
     transform="translate(-432.54402,-22.883101)">
    <g
       transform="translate(1902.4127,1015.3188)"
       id="g266">
      <g
         id="g264">
        <path
           d="m 146.07812,-95.515625 c 5.08204,0 8.75391,1.78125 11.01563,5.34375 2.26953,3.5625 2.44141,7.890625 0.51562,12.984375 L 129.625,0 H 93.8125 l 23.76563,-65.3125 c 0.67578,-2.039062 0.53125,-3.738281 -0.4375,-5.09375 -0.96094,-1.351562 -2.39844,-2.03125 -4.3125,-2.03125 H 73.125 L 46.828125,0 H 10.6875 L 45.296875,-95.515625 H 81.4375 l -4.75,13.0625 21.875,-13.0625 z m 0,0"
           id="path262" />
      </g>
    </g>
  </g>
  <g
     fill="#ebebeb"
     fill-opacity="1"
     id="g276"
     transform="translate(-432.54402,-22.883101)">
    <g
       transform="translate(2042.6964,1015.3188)"
       id="g274">
      <g
         id="g272">
        <path
           d="m 122.48438,-88.5625 12.39062,-33.76563 h 35.96875 L 126.39063,0 H 93.984375 l 0.6875,-12.046875 L 74.140625,0 H 35.625 c -7.460938,0 -12.71875,-2.375 -15.78125,-7.125 -3.054688,-4.75 -3.21875,-10.859375 -0.5,-18.328125 l 17.125,-46.984375 c 2.71875,-7.46875 6.765625,-13.179688 12.140625,-17.140625 5.375,-3.957031 11.789063,-5.9375 19.25,-5.9375 H 115.875 Z m -65.312505,58.359375 c -0.679687,2.042969 -0.59375,3.742187 0.25,5.09375 0.851563,1.355469 2.296875,2.03125 4.328125,2.03125 H 98.734375 L 116.71875,-72.4375 H 79.734375 c -2.03125,0 -3.980469,0.679688 -5.84375,2.03125 -1.867187,1.355469 -3.140625,3.054688 -3.828125,5.09375 z m 0,0"
           id="path270" />
      </g>
    </g>
  </g>
  <g
     fill="#000000"
     fill-opacity="0.4"
     id="g284"
     transform="translate(-432.54402,-22.883101)">
    <g
       transform="translate(983.18949,1108.6618)"
       id="g282">
      <g
         id="g280">
        <path
           d="m 1.890625,0 10.9375,-51.734375 h 28.90625 L 39.84375,-42.75 H 21.734375 l -2.390625,11.375 h 16.875 l -1.953125,8.984375 h -16.875 L 14.5625,-9.0625 H 32.671875 L 30.796875,0 Z m 0,0"
           id="path278" />
      </g>
    </g>
  </g>
  <g
     fill="#000000"
     fill-opacity="0.4"
     id="g292"
     transform="translate(-432.54402,-22.883101)">
    <g
       transform="translate(1029.6907,1108.6618)"
       id="g290">
      <g
         id="g288">
        <path
           d="m 1.890625,0 10.9375,-51.734375 H 25.4375 L 37.453125,-13.625 H 37.75 c 0.144531,-1.007812 0.347656,-2.320312 0.609375,-3.9375 0.269531,-1.625 0.5625,-3.304688 0.875,-5.046875 0.3125,-1.738281 0.613281,-3.285156 0.90625,-4.640625 l 5.21875,-24.484375 H 55.0625 L 44.125,0 H 32.03125 L 19.421875,-39.125 H 19.0625 c -0.05469,0.292969 -0.152344,0.984375 -0.296875,2.078125 -0.148437,1.085937 -0.328125,2.375 -0.546875,3.875 -0.21875,1.492187 -0.464844,3.023437 -0.734375,4.59375 -0.261719,1.5625 -0.511719,2.976563 -0.75,4.234375 L 11.59375,0 Z m 0,0"
           id="path286" />
      </g>
    </g>
  </g>
  <g
     fill="#000000"
     fill-opacity="0.4"
     id="g300"
     transform="translate(-432.54402,-22.883101)">
    <g
       transform="translate(1091.6183,1108.6618)"
       id="g298">
      <g
         id="g296">
        <path
           d="M 9.421875,0 18.40625,-42.609375 H 5.9375 l 1.953125,-9.125 h 35.71875 l -1.953125,9.125 H 29.203125 L 20.21875,0 Z m 0,0"
           id="path294" />
      </g>
    </g>
  </g>
  <g
     fill="#000000"
     fill-opacity="0.4"
     id="g308"
     transform="translate(-432.54402,-22.883101)">
    <g
       transform="translate(1137.3229,1108.6618)"
       id="g306">
      <g
         id="g304">
        <path
           d="m 1.890625,0 10.9375,-51.734375 h 28.90625 L 39.84375,-42.75 H 21.734375 l -2.390625,11.375 h 16.875 l -1.953125,8.984375 h -16.875 L 14.5625,-9.0625 H 32.671875 L 30.796875,0 Z m 0,0"
           id="path302" />
      </g>
    </g>
  </g>
  <g
     fill="#000000"
     fill-opacity="0.4"
     id="g316"
     transform="translate(-432.54402,-22.883101)">
    <g
       transform="translate(1183.8241,1108.6618)"
       id="g314">
      <g
         id="g312">
        <path
           d="m 1.890625,0 10.9375,-51.734375 H 25.5 c 5.164062,0 9.257812,1.117187 12.28125,3.34375 3.019531,2.21875 4.53125,5.839844 4.53125,10.859375 0,4.105469 -1.089844,7.449219 -3.265625,10.03125 -2.167969,2.585938 -4.871094,4.433594 -8.109375,5.546875 L 40.140625,0 H 28.40625 L 21.078125,-19.859375 H 16.875 L 12.671875,0 Z m 16.875,-28.765625 h 2.75 c 3.09375,0 5.492187,-0.675781 7.203125,-2.03125 1.71875,-1.351563 2.578125,-3.40625 2.578125,-6.15625 0,-3.863281 -2.320313,-5.796875 -6.953125,-5.796875 h -2.609375 z m 0,0"
           id="path310" />
      </g>
    </g>
  </g>
  <g
     fill="#000000"
     fill-opacity="0.4"
     id="g324"
     transform="translate(-432.54402,-22.883101)">
    <g
       transform="translate(1235.1778,1108.6618)"
       id="g322">
      <g
         id="g320">
        <path
           d="M 9.421875,0 18.40625,-42.609375 H 5.9375 l 1.953125,-9.125 h 35.71875 l -1.953125,9.125 H 29.203125 L 20.21875,0 Z m 0,0"
           id="path318" />
      </g>
    </g>
  </g>
  <g
     fill="#000000"
     fill-opacity="0.4"
     id="g332"
     transform="translate(-432.54402,-22.883101)">
    <g
       transform="translate(1280.8823,1108.6618)"
       id="g330">
      <g
         id="g328">
        <path
           d="M -4.34375,0 22.75,-51.734375 H 35.9375 L 41.15625,0 H 30.640625 L 29.78125,-12.3125 H 13.046875 L 6.953125,0 Z m 21.8125,-21.515625 h 11.796875 l -0.9375,-13.328125 c -0.09375,-1.40625 -0.195313,-2.832031 -0.296875,-4.28125 -0.09375,-1.445312 -0.117188,-2.921875 -0.0625,-4.421875 h -0.140625 c -0.492187,1.304687 -1.027344,2.59375 -1.609375,3.875 C 25.644531,-38.390625 24.992188,-37 24.265625,-35.5 Z m 0,0"
           id="path326" />
      </g>
    </g>
  </g>
  <g
     fill="#000000"
     fill-opacity="0.4"
     id="g340"
     transform="translate(-432.54402,-22.883101)">
    <g
       transform="translate(1333.6121,1108.6618)"
       id="g338">
      <g
         id="g336">
        <path
           d="M -2.09375,0 -0.796875,-6.234375 5.796875,-9.125 12.890625,-42.609375 7.53125,-45.5 8.84375,-51.734375 H 31.734375 L 30.4375,-45.5 l -6.75,2.890625 -7.09375,33.484375 5.5,2.890625 L 20.796875,0 Z m 0,0"
           id="path334" />
      </g>
    </g>
  </g>
  <g
     fill="#000000"
     fill-opacity="0.4"
     id="g348"
     transform="translate(-432.54402,-22.883101)">
    <g
       transform="translate(1368.5978,1108.6618)"
       id="g346">
      <g
         id="g344">
        <path
           d="m 1.890625,0 10.9375,-51.734375 H 25.4375 L 37.453125,-13.625 H 37.75 c 0.144531,-1.007812 0.347656,-2.320312 0.609375,-3.9375 0.269531,-1.625 0.5625,-3.304688 0.875,-5.046875 0.3125,-1.738281 0.613281,-3.285156 0.90625,-4.640625 l 5.21875,-24.484375 H 55.0625 L 44.125,0 H 32.03125 L 19.421875,-39.125 H 19.0625 c -0.05469,0.292969 -0.152344,0.984375 -0.296875,2.078125 -0.148437,1.085937 -0.328125,2.375 -0.546875,3.875 -0.21875,1.492187 -0.464844,3.023437 -0.734375,4.59375 -0.261719,1.5625 -0.511719,2.976563 -0.75,4.234375 L 11.59375,0 Z m 0,0"
           id="path342" />
      </g>
    </g>
  </g>
  <g
     fill="#000000"
     fill-opacity="0.4"
     id="g356"
     transform="translate(-432.54402,-22.883101)">
    <g
       transform="translate(1430.5254,1108.6618)"
       id="g354">
      <g
         id="g352">
        <path
           d="m 1.890625,0 10.9375,-51.734375 H 27.09375 l 2.328125,38.6875 h 0.28125 L 49.125,-51.734375 h 15 L 53.1875,0 H 43.25 l 5.15625,-24.484375 c 0.332031,-1.644531 0.726562,-3.394531 1.1875,-5.25 0.457031,-1.863281 0.914062,-3.703125 1.375,-5.515625 0.457031,-1.8125 0.878906,-3.414062 1.265625,-4.8125 h -0.28125 L 31.8125,0 H 21.875 l -2.171875,-40.0625 h -0.28125 c -0.105469,1.011719 -0.304687,2.402344 -0.59375,4.171875 -0.28125,1.761719 -0.617187,3.679687 -1,5.75 -0.386719,2.074219 -0.773437,4.105469 -1.15625,6.09375 L 11.59375,0 Z m 0,0"
           id="path350" />
      </g>
    </g>
  </g>
  <g
     fill="#000000"
     fill-opacity="0.4"
     id="g364"
     transform="translate(-432.54402,-22.883101)">
    <g
       transform="translate(1501.506,1108.6618)"
       id="g362">
      <g
         id="g360">
        <path
           d="m 1.890625,0 10.9375,-51.734375 h 28.90625 L 39.84375,-42.75 H 21.734375 l -2.390625,11.375 h 16.875 l -1.953125,8.984375 h -16.875 L 14.5625,-9.0625 H 32.671875 L 30.796875,0 Z m 0,0"
           id="path358" />
      </g>
    </g>
  </g>
  <g
     fill="#000000"
     fill-opacity="0.4"
     id="g372"
     transform="translate(-432.54402,-22.883101)">
    <g
       transform="translate(1548.0072,1108.6618)"
       id="g370">
      <g
         id="g368">
        <path
           d="m 1.890625,0 10.9375,-51.734375 H 25.4375 L 37.453125,-13.625 H 37.75 c 0.144531,-1.007812 0.347656,-2.320312 0.609375,-3.9375 0.269531,-1.625 0.5625,-3.304688 0.875,-5.046875 0.3125,-1.738281 0.613281,-3.285156 0.90625,-4.640625 l 5.21875,-24.484375 H 55.0625 L 44.125,0 H 32.03125 L 19.421875,-39.125 H 19.0625 c -0.05469,0.292969 -0.152344,0.984375 -0.296875,2.078125 -0.148437,1.085937 -0.328125,2.375 -0.546875,3.875 -0.21875,1.492187 -0.464844,3.023437 -0.734375,4.59375 -0.261719,1.5625 -0.511719,2.976563 -0.75,4.234375 L 11.59375,0 Z m 0,0"
           id="path366" />
      </g>
    </g>
  </g>
  <g
     fill="#000000"
     fill-opacity="0.4"
     id="g380"
     transform="translate(-432.54402,-22.883101)">
    <g
       transform="translate(1609.9348,1108.6618)"
       id="g378">
      <g
         id="g376">
        <path
           d="M 9.421875,0 18.40625,-42.609375 H 5.9375 l 1.953125,-9.125 h 35.71875 l -1.953125,9.125 H 29.203125 L 20.21875,0 Z m 0,0"
           id="path374" />
      </g>
    </g>
  </g>
  <g
     fill="#5271ff"
     fill-opacity="1"
     id="g388"
     transform="translate(-432.54402,-22.883101)">
    <g
       transform="translate(979.98669,1105.459)"
       id="g386">
      <g
         id="g384">
        <path
           d="m 1.890625,0 10.9375,-51.734375 h 28.90625 L 39.84375,-42.75 H 21.734375 l -2.390625,11.375 h 16.875 l -1.953125,8.984375 h -16.875 L 14.5625,-9.0625 H 32.671875 L 30.796875,0 Z m 0,0"
           id="path382" />
      </g>
    </g>
  </g>
  <g
     fill="#5271ff"
     fill-opacity="1"
     id="g396"
     transform="translate(-432.54402,-22.883101)">
    <g
       transform="translate(1026.4879,1105.459)"
       id="g394">
      <g
         id="g392">
        <path
           d="m 1.890625,0 10.9375,-51.734375 H 25.4375 L 37.453125,-13.625 H 37.75 c 0.144531,-1.007812 0.347656,-2.320312 0.609375,-3.9375 0.269531,-1.625 0.5625,-3.304688 0.875,-5.046875 0.3125,-1.738281 0.613281,-3.285156 0.90625,-4.640625 l 5.21875,-24.484375 H 55.0625 L 44.125,0 H 32.03125 L 19.421875,-39.125 H 19.0625 c -0.05469,0.292969 -0.152344,0.984375 -0.296875,2.078125 -0.148437,1.085937 -0.328125,2.375 -0.546875,3.875 -0.21875,1.492187 -0.464844,3.023437 -0.734375,4.59375 -0.261719,1.5625 -0.511719,2.976563 -0.75,4.234375 L 11.59375,0 Z m 0,0"
           id="path390" />
      </g>
    </g>
  </g>
  <g
     fill="#5271ff"
     fill-opacity="1"
     id="g404"
     transform="translate(-432.54402,-22.883101)">
    <g
       transform="translate(1088.4155,1105.459)"
       id="g402">
      <g
         id="g400">
        <path
           d="M 9.421875,0 18.40625,-42.609375 H 5.9375 l 1.953125,-9.125 h 35.71875 l -1.953125,9.125 H 29.203125 L 20.21875,0 Z m 0,0"
           id="path398" />
      </g>
    </g>
  </g>
  <g
     fill="#5271ff"
     fill-opacity="1"
     id="g412"
     transform="translate(-432.54402,-22.883101)">
    <g
       transform="translate(1134.1201,1105.459)"
       id="g410">
      <g
         id="g408">
        <path
           d="m 1.890625,0 10.9375,-51.734375 h 28.90625 L 39.84375,-42.75 H 21.734375 l -2.390625,11.375 h 16.875 l -1.953125,8.984375 h -16.875 L 14.5625,-9.0625 H 32.671875 L 30.796875,0 Z m 0,0"
           id="path406" />
      </g>
    </g>
  </g>
  <g
     fill="#5271ff"
     fill-opacity="1"
     id="g420"
     transform="translate(-432.54402,-22.883101)">
    <g
       transform="translate(1180.6213,1105.459)"
       id="g418">
      <g
         id="g416">
        <path
           d="m 1.890625,0 10.9375,-51.734375 H 25.5 c 5.164062,0 9.257812,1.117187 12.28125,3.34375 3.019531,2.21875 4.53125,5.839844 4.53125,10.859375 0,4.105469 -1.089844,7.449219 -3.265625,10.03125 -2.167969,2.585938 -4.871094,4.433594 -8.109375,5.546875 L 40.140625,0 H 28.40625 L 21.078125,-19.859375 H 16.875 L 12.671875,0 Z m 16.875,-28.765625 h 2.75 c 3.09375,0 5.492187,-0.675781 7.203125,-2.03125 1.71875,-1.351563 2.578125,-3.40625 2.578125,-6.15625 0,-3.863281 -2.320313,-5.796875 -6.953125,-5.796875 h -2.609375 z m 0,0"
           id="path414" />
      </g>
    </g>
  </g>
  <g
     fill="#5271ff"
     fill-opacity="1"
     id="g428"
     transform="translate(-432.54402,-22.883101)">
    <g
       transform="translate(1231.975,1105.459)"
       id="g426">
      <g
         id="g424">
        <path
           d="M 9.421875,0 18.40625,-42.609375 H 5.9375 l 1.953125,-9.125 h 35.71875 l -1.953125,9.125 H 29.203125 L 20.21875,0 Z m 0,0"
           id="path422" />
      </g>
    </g>
  </g>
  <g
     fill="#5271ff"
     fill-opacity="1"
     id="g436"
     transform="translate(-432.54402,-22.883101)">
    <g
       transform="translate(1277.6795,1105.459)"
       id="g434">
      <g
         id="g432">
        <path
           d="M -4.34375,0 22.75,-51.734375 H 35.9375 L 41.15625,0 H 30.640625 L 29.78125,-12.3125 H 13.046875 L 6.953125,0 Z m 21.8125,-21.515625 h 11.796875 l -0.9375,-13.328125 c -0.09375,-1.40625 -0.195313,-2.832031 -0.296875,-4.28125 -0.09375,-1.445312 -0.117188,-2.921875 -0.0625,-4.421875 h -0.140625 c -0.492187,1.304687 -1.027344,2.59375 -1.609375,3.875 C 25.644531,-38.390625 24.992188,-37 24.265625,-35.5 Z m 0,0"
           id="path430" />
      </g>
    </g>
  </g>
  <g
     fill="#5271ff"
     fill-opacity="1"
     id="g444"
     transform="translate(-432.54402,-22.883101)">
    <g
       transform="translate(1330.4093,1105.459)"
       id="g442">
      <g
         id="g440">
        <path
           d="M -2.09375,0 -0.796875,-6.234375 5.796875,-9.125 12.890625,-42.609375 7.53125,-45.5 8.84375,-51.734375 H 31.734375 L 30.4375,-45.5 l -6.75,2.890625 -7.09375,33.484375 5.5,2.890625 L 20.796875,0 Z m 0,0"
           id="path438" />
      </g>
    </g>
  </g>
  <g
     fill="#5271ff"
     fill-opacity="1"
     id="g452"
     transform="translate(-432.54402,-22.883101)">
    <g
       transform="translate(1365.395,1105.459)"
       id="g450">
      <g
         id="g448">
        <path
           d="m 1.890625,0 10.9375,-51.734375 H 25.4375 L 37.453125,-13.625 H 37.75 c 0.144531,-1.007812 0.347656,-2.320312 0.609375,-3.9375 0.269531,-1.625 0.5625,-3.304688 0.875,-5.046875 0.3125,-1.738281 0.613281,-3.285156 0.90625,-4.640625 l 5.21875,-24.484375 H 55.0625 L 44.125,0 H 32.03125 L 19.421875,-39.125 H 19.0625 c -0.05469,0.292969 -0.152344,0.984375 -0.296875,2.078125 -0.148437,1.085937 -0.328125,2.375 -0.546875,3.875 -0.21875,1.492187 -0.464844,3.023437 -0.734375,4.59375 -0.261719,1.5625 -0.511719,2.976563 -0.75,4.234375 L 11.59375,0 Z m 0,0"
           id="path446" />
      </g>
    </g>
  </g>
  <g
     fill="#5271ff"
     fill-opacity="1"
     id="g460"
     transform="translate(-432.54402,-22.883101)">
    <g
       transform="translate(1427.3226,1105.459)"
       id="g458">
      <g
         id="g456">
        <path
           d="m 1.890625,0 10.9375,-51.734375 H 27.09375 l 2.328125,38.6875 h 0.28125 L 49.125,-51.734375 h 15 L 53.1875,0 H 43.25 l 5.15625,-24.484375 c 0.332031,-1.644531 0.726562,-3.394531 1.1875,-5.25 0.457031,-1.863281 0.914062,-3.703125 1.375,-5.515625 0.457031,-1.8125 0.878906,-3.414062 1.265625,-4.8125 h -0.28125 L 31.8125,0 H 21.875 l -2.171875,-40.0625 h -0.28125 c -0.105469,1.011719 -0.304687,2.402344 -0.59375,4.171875 -0.28125,1.761719 -0.617187,3.679687 -1,5.75 -0.386719,2.074219 -0.773437,4.105469 -1.15625,6.09375 L 11.59375,0 Z m 0,0"
           id="path454" />
      </g>
    </g>
  </g>
  <g
     fill="#5271ff"
     fill-opacity="1"
     id="g468"
     transform="translate(-432.54402,-22.883101)">
    <g
       transform="translate(1498.3032,1105.459)"
       id="g466">
      <g
         id="g464">
        <path
           d="m 1.890625,0 10.9375,-51.734375 h 28.90625 L 39.84375,-42.75 H 21.734375 l -2.390625,11.375 h 16.875 l -1.953125,8.984375 h -16.875 L 14.5625,-9.0625 H 32.671875 L 30.796875,0 Z m 0,0"
           id="path462" />
      </g>
    </g>
  </g>
  <g
     fill="#5271ff"
     fill-opacity="1"
     id="g476"
     transform="translate(-432.54402,-22.883101)">
    <g
       transform="translate(1544.8044,1105.459)"
       id="g474">
      <g
         id="g472">
        <path
           d="m 1.890625,0 10.9375,-51.734375 H 25.4375 L 37.453125,-13.625 H 37.75 c 0.144531,-1.007812 0.347656,-2.320312 0.609375,-3.9375 0.269531,-1.625 0.5625,-3.304688 0.875,-5.046875 0.3125,-1.738281 0.613281,-3.285156 0.90625,-4.640625 l 5.21875,-24.484375 H 55.0625 L 44.125,0 H 32.03125 L 19.421875,-39.125 H 19.0625 c -0.05469,0.292969 -0.152344,0.984375 -0.296875,2.078125 -0.148437,1.085937 -0.328125,2.375 -0.546875,3.875 -0.21875,1.492187 -0.464844,3.023437 -0.734375,4.59375 -0.261719,1.5625 -0.511719,2.976563 -0.75,4.234375 L 11.59375,0 Z m 0,0"
           id="path470" />
      </g>
    </g>
  </g>
  <g
     fill="#5271ff"
     fill-opacity="1"
     id="g484"
     transform="translate(-432.54402,-22.883101)">
    <g
       transform="translate(1606.732,1105.459)"
       id="g482">
      <g
         id="g480">
        <path
           d="M 9.421875,0 18.40625,-42.609375 H 5.9375 l 1.953125,-9.125 h 35.71875 l -1.953125,9.125 H 29.203125 L 20.21875,0 Z m 0,0"
           id="path478" />
      </g>
    </g>
  </g>
</svg>
